<mxfile host="app.diagrams.net" modified="2023-01-25T13:22:02.918Z" agent="5.0 (Windows)" etag="3PDB3FGjajtaIaJaQg5l" version="20.8.11" type="github">
  <diagram id="prtHgNgQTEPvFCAcTncT" name="Page-1">
    <mxGraphModel dx="358" dy="637" grid="1" gridSize="10" guides="1" tooltips="1" connect="1" arrows="1" fold="1" page="1" pageScale="1" pageWidth="827" pageHeight="1169" math="0" shadow="0">
      <root>
        <mxCell id="0" />
        <mxCell id="1" parent="0" />
        <mxCell id="U35MboQYNCDHYeBfsKGN-50" value="&lt;h2&gt;TRACHI SCM Ecosystem&lt;/h2&gt;" style="swimlane;whiteSpace=wrap;html=1;comic=0;fontFamily=Jost;fontSource=https%3A%2F%2Ffonts.googleapis.com%2Fcss%3Ffamily%3DJost;fontColor=#FFFFFF;fillColor=#000000;container=0;treeFolding=0;treeMoving=0;pointerEvents=1;enumerate=0;swimlaneFillColor=#000000;strokeColor=#FFFFFF;startSize=50;" vertex="1" parent="1">
          <mxGeometry x="1060" y="400" width="930" height="560" as="geometry" />
        </mxCell>
        <mxCell id="U35MboQYNCDHYeBfsKGN-62" value="" style="group" vertex="1" connectable="0" parent="U35MboQYNCDHYeBfsKGN-50">
          <mxGeometry x="90" y="120" width="750" height="350" as="geometry" />
        </mxCell>
        <mxCell id="U35MboQYNCDHYeBfsKGN-4" value="trachi.net" style="rounded=0;whiteSpace=wrap;html=1;fontFamily=Jost;fontSource=https%3A%2F%2Ffonts.googleapis.com%2Fcss%3Ffamily%3DJost;strokeColor=#FFFFFF;fontColor=#FFFFFF;fillColor=#000000;" vertex="1" parent="U35MboQYNCDHYeBfsKGN-62">
          <mxGeometry x="630" y="75" width="120" height="60" as="geometry" />
        </mxCell>
        <mxCell id="U35MboQYNCDHYeBfsKGN-7" value="&lt;div&gt;&lt;b&gt;GitHub&lt;/b&gt;&lt;/div&gt;" style="swimlane;fontStyle=0;childLayout=stackLayout;horizontal=1;startSize=30;horizontalStack=0;resizeParent=1;resizeParentMax=0;resizeLast=0;collapsible=1;marginBottom=0;whiteSpace=wrap;html=1;comic=0;fontFamily=Jost;fontSource=https%3A%2F%2Ffonts.googleapis.com%2Fcss%3Ffamily%3DJost;strokeColor=#FFFFFF;fontColor=#FFFFFF;fillColor=#000000;" vertex="1" parent="U35MboQYNCDHYeBfsKGN-62">
          <mxGeometry x="380" width="140" height="120" as="geometry" />
        </mxCell>
        <mxCell id="U35MboQYNCDHYeBfsKGN-8" value="TRACHIUnreal" style="text;strokeColor=none;fillColor=none;align=left;verticalAlign=middle;spacingLeft=4;spacingRight=4;overflow=hidden;points=[[0,0.5],[1,0.5]];portConstraint=eastwest;rotatable=0;whiteSpace=wrap;html=1;fontFamily=Jost;fontSource=https%3A%2F%2Ffonts.googleapis.com%2Fcss%3Ffamily%3DJost;fontColor=#FFFFFF;" vertex="1" parent="U35MboQYNCDHYeBfsKGN-7">
          <mxGeometry y="30" width="140" height="30" as="geometry" />
        </mxCell>
        <mxCell id="U35MboQYNCDHYeBfsKGN-9" value="ANARCHY" style="text;strokeColor=none;fillColor=none;align=left;verticalAlign=middle;spacingLeft=4;spacingRight=4;overflow=hidden;points=[[0,0.5],[1,0.5]];portConstraint=eastwest;rotatable=0;whiteSpace=wrap;html=1;fontFamily=Jost;fontSource=https%3A%2F%2Ffonts.googleapis.com%2Fcss%3Ffamily%3DJost;fontColor=#FFFFFF;" vertex="1" parent="U35MboQYNCDHYeBfsKGN-7">
          <mxGeometry y="60" width="140" height="30" as="geometry" />
        </mxCell>
        <mxCell id="U35MboQYNCDHYeBfsKGN-10" value="TRACHIweb" style="text;strokeColor=none;fillColor=none;align=left;verticalAlign=middle;spacingLeft=4;spacingRight=4;overflow=hidden;points=[[0,0.5],[1,0.5]];portConstraint=eastwest;rotatable=0;whiteSpace=wrap;html=1;fontFamily=Jost;fontSource=https%3A%2F%2Ffonts.googleapis.com%2Fcss%3Ffamily%3DJost;fontColor=#FFFFFF;" vertex="1" parent="U35MboQYNCDHYeBfsKGN-7">
          <mxGeometry y="90" width="140" height="30" as="geometry" />
        </mxCell>
        <mxCell id="U35MboQYNCDHYeBfsKGN-11" style="edgeStyle=orthogonalEdgeStyle;rounded=0;orthogonalLoop=1;jettySize=auto;html=1;fontFamily=Jost;fontSource=https%3A%2F%2Ffonts.googleapis.com%2Fcss%3Ffamily%3DJost;fontColor=#FFFFFF;strokeColor=#FFFFFF;" edge="1" parent="U35MboQYNCDHYeBfsKGN-62" source="U35MboQYNCDHYeBfsKGN-10" target="U35MboQYNCDHYeBfsKGN-4">
          <mxGeometry relative="1" as="geometry">
            <mxPoint x="670" y="105" as="targetPoint" />
          </mxGeometry>
        </mxCell>
        <mxCell id="U35MboQYNCDHYeBfsKGN-12" value="&lt;div&gt;&lt;b&gt;local&lt;/b&gt;&lt;/div&gt;" style="swimlane;fontStyle=0;childLayout=stackLayout;horizontal=1;startSize=30;horizontalStack=0;resizeParent=1;resizeParentMax=0;resizeLast=0;collapsible=1;marginBottom=0;whiteSpace=wrap;html=1;comic=0;fontFamily=Jost;fontSource=https%3A%2F%2Ffonts.googleapis.com%2Fcss%3Ffamily%3DJost;strokeColor=#FFFFFF;fontColor=#FFFFFF;fillColor=#000000;" vertex="1" parent="U35MboQYNCDHYeBfsKGN-62">
          <mxGeometry width="140" height="210" as="geometry" />
        </mxCell>
        <mxCell id="U35MboQYNCDHYeBfsKGN-13" value="TRACHIUnreal" style="text;strokeColor=none;fillColor=none;align=left;verticalAlign=middle;spacingLeft=4;spacingRight=4;overflow=hidden;points=[[0,0.5],[1,0.5]];portConstraint=eastwest;rotatable=0;whiteSpace=wrap;html=1;fontFamily=Jost;fontSource=https%3A%2F%2Ffonts.googleapis.com%2Fcss%3Ffamily%3DJost;fontColor=#FFFFFF;" vertex="1" parent="U35MboQYNCDHYeBfsKGN-12">
          <mxGeometry y="30" width="140" height="30" as="geometry" />
        </mxCell>
        <mxCell id="U35MboQYNCDHYeBfsKGN-14" value="ANARCHY" style="text;strokeColor=none;fillColor=none;align=left;verticalAlign=middle;spacingLeft=4;spacingRight=4;overflow=hidden;points=[[0,0.5],[1,0.5]];portConstraint=eastwest;rotatable=0;whiteSpace=wrap;html=1;fontFamily=Jost;fontSource=https%3A%2F%2Ffonts.googleapis.com%2Fcss%3Ffamily%3DJost;fontColor=#FFFFFF;" vertex="1" parent="U35MboQYNCDHYeBfsKGN-12">
          <mxGeometry y="60" width="140" height="30" as="geometry" />
        </mxCell>
        <mxCell id="U35MboQYNCDHYeBfsKGN-15" value="TRACHIweb" style="text;strokeColor=none;fillColor=none;align=left;verticalAlign=middle;spacingLeft=4;spacingRight=4;overflow=hidden;points=[[0,0.5],[1,0.5]];portConstraint=eastwest;rotatable=0;whiteSpace=wrap;html=1;fontFamily=Jost;fontSource=https%3A%2F%2Ffonts.googleapis.com%2Fcss%3Ffamily%3DJost;fontColor=#FFFFFF;" vertex="1" parent="U35MboQYNCDHYeBfsKGN-12">
          <mxGeometry y="90" width="140" height="30" as="geometry" />
        </mxCell>
        <mxCell id="U35MboQYNCDHYeBfsKGN-26" value="&lt;div&gt;ANARCHYSteam&lt;/div&gt;" style="text;strokeColor=none;fillColor=none;align=left;verticalAlign=middle;spacingLeft=4;spacingRight=4;overflow=hidden;points=[[0,0.5],[1,0.5]];portConstraint=eastwest;rotatable=0;whiteSpace=wrap;html=1;fontFamily=Jost;fontSource=https%3A%2F%2Ffonts.googleapis.com%2Fcss%3Ffamily%3DJost;fontColor=#FFFFFF;" vertex="1" parent="U35MboQYNCDHYeBfsKGN-12">
          <mxGeometry y="120" width="140" height="30" as="geometry" />
        </mxCell>
        <mxCell id="U35MboQYNCDHYeBfsKGN-30" value="&lt;div&gt;AUTONOMY&lt;/div&gt;" style="text;strokeColor=none;fillColor=none;align=left;verticalAlign=middle;spacingLeft=4;spacingRight=4;overflow=hidden;points=[[0,0.5],[1,0.5]];portConstraint=eastwest;rotatable=0;whiteSpace=wrap;html=1;fontFamily=Jost;fontSource=https%3A%2F%2Ffonts.googleapis.com%2Fcss%3Ffamily%3DJost;fontColor=#FFFFFF;" vertex="1" parent="U35MboQYNCDHYeBfsKGN-12">
          <mxGeometry y="150" width="140" height="30" as="geometry" />
        </mxCell>
        <mxCell id="U35MboQYNCDHYeBfsKGN-31" value="&lt;div&gt;InvAsion&lt;/div&gt;" style="text;strokeColor=none;fillColor=none;align=left;verticalAlign=middle;spacingLeft=4;spacingRight=4;overflow=hidden;points=[[0,0.5],[1,0.5]];portConstraint=eastwest;rotatable=0;whiteSpace=wrap;html=1;fontFamily=Jost;fontSource=https%3A%2F%2Ffonts.googleapis.com%2Fcss%3Ffamily%3DJost;fontColor=#FFFFFF;" vertex="1" parent="U35MboQYNCDHYeBfsKGN-12">
          <mxGeometry y="180" width="140" height="30" as="geometry" />
        </mxCell>
        <mxCell id="U35MboQYNCDHYeBfsKGN-16" value="&lt;div&gt;&lt;b&gt;Steam&lt;/b&gt;&lt;/div&gt;" style="swimlane;fontStyle=0;childLayout=stackLayout;horizontal=1;startSize=30;horizontalStack=0;resizeParent=1;resizeParentMax=0;resizeLast=0;collapsible=1;marginBottom=0;whiteSpace=wrap;html=1;comic=0;fontFamily=Jost;fontSource=https%3A%2F%2Ffonts.googleapis.com%2Fcss%3Ffamily%3DJost;strokeColor=#FFFFFF;fontColor=#FFFFFF;fillColor=#000000;" vertex="1" parent="U35MboQYNCDHYeBfsKGN-62">
          <mxGeometry x="380" y="200" width="140" height="150" as="geometry" />
        </mxCell>
        <mxCell id="U35MboQYNCDHYeBfsKGN-17" value="AUTHORITY" style="text;strokeColor=none;fillColor=none;align=left;verticalAlign=middle;spacingLeft=4;spacingRight=4;overflow=hidden;points=[[0,0.5],[1,0.5]];portConstraint=eastwest;rotatable=0;whiteSpace=wrap;html=1;fontFamily=Jost;fontSource=https%3A%2F%2Ffonts.googleapis.com%2Fcss%3Ffamily%3DJost;fontColor=#FFFFFF;" vertex="1" parent="U35MboQYNCDHYeBfsKGN-16">
          <mxGeometry y="30" width="140" height="30" as="geometry" />
        </mxCell>
        <mxCell id="U35MboQYNCDHYeBfsKGN-58" value="ANARCHY" style="text;strokeColor=none;fillColor=none;align=left;verticalAlign=middle;spacingLeft=4;spacingRight=4;overflow=hidden;points=[[0,0.5],[1,0.5]];portConstraint=eastwest;rotatable=0;whiteSpace=wrap;html=1;fontFamily=Jost;fontSource=https%3A%2F%2Ffonts.googleapis.com%2Fcss%3Ffamily%3DJost;fontColor=#801E1E;" vertex="1" parent="U35MboQYNCDHYeBfsKGN-16">
          <mxGeometry y="60" width="140" height="30" as="geometry" />
        </mxCell>
        <mxCell id="U35MboQYNCDHYeBfsKGN-19" value="&lt;div&gt;AUTONOMY&lt;/div&gt;" style="text;strokeColor=none;fillColor=none;align=left;verticalAlign=middle;spacingLeft=4;spacingRight=4;overflow=hidden;points=[[0,0.5],[1,0.5]];portConstraint=eastwest;rotatable=0;whiteSpace=wrap;html=1;fontFamily=Jost;fontSource=https%3A%2F%2Ffonts.googleapis.com%2Fcss%3Ffamily%3DJost;fontColor=#FFFFFF;" vertex="1" parent="U35MboQYNCDHYeBfsKGN-16">
          <mxGeometry y="90" width="140" height="30" as="geometry" />
        </mxCell>
        <mxCell id="U35MboQYNCDHYeBfsKGN-21" value="&lt;div&gt;InvAsion&lt;/div&gt;" style="text;strokeColor=none;fillColor=none;align=left;verticalAlign=middle;spacingLeft=4;spacingRight=4;overflow=hidden;points=[[0,0.5],[1,0.5]];portConstraint=eastwest;rotatable=0;whiteSpace=wrap;html=1;fontFamily=Jost;fontSource=https%3A%2F%2Ffonts.googleapis.com%2Fcss%3Ffamily%3DJost;fontColor=#FFFFFF;" vertex="1" parent="U35MboQYNCDHYeBfsKGN-16">
          <mxGeometry y="120" width="140" height="30" as="geometry" />
        </mxCell>
        <mxCell id="U35MboQYNCDHYeBfsKGN-22" style="edgeStyle=orthogonalEdgeStyle;rounded=0;orthogonalLoop=1;jettySize=auto;html=1;fontColor=#FFFFFF;startArrow=classic;startFill=1;fontFamily=Jost;fontSource=https%3A%2F%2Ffonts.googleapis.com%2Fcss%3Ffamily%3DJost;strokeColor=#FFFFFF;" edge="1" parent="U35MboQYNCDHYeBfsKGN-62" source="U35MboQYNCDHYeBfsKGN-13" target="U35MboQYNCDHYeBfsKGN-8">
          <mxGeometry relative="1" as="geometry" />
        </mxCell>
        <mxCell id="U35MboQYNCDHYeBfsKGN-38" value="&lt;div&gt;Project Source&lt;/div&gt;" style="edgeLabel;html=1;align=center;verticalAlign=middle;resizable=0;points=[];fontFamily=Jost;fontColor=#FFFFFF;labelBackgroundColor=#000000;" vertex="1" connectable="0" parent="U35MboQYNCDHYeBfsKGN-22">
          <mxGeometry x="-0.1845" y="-1" relative="1" as="geometry">
            <mxPoint x="12" y="-1" as="offset" />
          </mxGeometry>
        </mxCell>
        <mxCell id="U35MboQYNCDHYeBfsKGN-24" style="edgeStyle=orthogonalEdgeStyle;rounded=0;orthogonalLoop=1;jettySize=auto;html=1;exitX=1;exitY=0.5;exitDx=0;exitDy=0;fontColor=#FFFFFF;startArrow=classic;startFill=1;fontFamily=Jost;fontSource=https%3A%2F%2Ffonts.googleapis.com%2Fcss%3Ffamily%3DJost;strokeColor=#FFFFFF;" edge="1" parent="U35MboQYNCDHYeBfsKGN-62" source="U35MboQYNCDHYeBfsKGN-14" target="U35MboQYNCDHYeBfsKGN-9">
          <mxGeometry relative="1" as="geometry" />
        </mxCell>
        <mxCell id="U35MboQYNCDHYeBfsKGN-39" value="&lt;div&gt;GitHub Package&lt;/div&gt;" style="edgeLabel;html=1;align=center;verticalAlign=middle;resizable=0;points=[];fontFamily=Jost;fontColor=#FFFFFF;labelBackgroundColor=#000000;" vertex="1" connectable="0" parent="U35MboQYNCDHYeBfsKGN-24">
          <mxGeometry x="-0.1226" y="2" relative="1" as="geometry">
            <mxPoint x="5" y="2" as="offset" />
          </mxGeometry>
        </mxCell>
        <mxCell id="U35MboQYNCDHYeBfsKGN-27" style="edgeStyle=orthogonalEdgeStyle;rounded=0;orthogonalLoop=1;jettySize=auto;html=1;fontColor=#FFFFFF;startArrow=classic;startFill=1;fontFamily=Jost;fontSource=https%3A%2F%2Ffonts.googleapis.com%2Fcss%3Ffamily%3DJost;strokeColor=#FFFFFF;" edge="1" parent="U35MboQYNCDHYeBfsKGN-62" source="U35MboQYNCDHYeBfsKGN-26" target="U35MboQYNCDHYeBfsKGN-17">
          <mxGeometry relative="1" as="geometry">
            <Array as="points">
              <mxPoint x="290" y="135" />
              <mxPoint x="290" y="245" />
            </Array>
          </mxGeometry>
        </mxCell>
        <mxCell id="U35MboQYNCDHYeBfsKGN-29" style="edgeStyle=orthogonalEdgeStyle;rounded=0;orthogonalLoop=1;jettySize=auto;html=1;fontColor=#FFFFFF;startArrow=classic;startFill=1;fontFamily=Jost;fontSource=https%3A%2F%2Ffonts.googleapis.com%2Fcss%3Ffamily%3DJost;strokeColor=#FFFFFF;" edge="1" parent="U35MboQYNCDHYeBfsKGN-62" source="U35MboQYNCDHYeBfsKGN-15" target="U35MboQYNCDHYeBfsKGN-10">
          <mxGeometry relative="1" as="geometry" />
        </mxCell>
        <mxCell id="U35MboQYNCDHYeBfsKGN-40" value="&lt;div&gt;Website&lt;/div&gt;" style="edgeLabel;html=1;align=center;verticalAlign=middle;resizable=0;points=[];fontFamily=Jost;fontColor=#FFFFFF;labelBackgroundColor=#000000;" vertex="1" connectable="0" parent="U35MboQYNCDHYeBfsKGN-29">
          <mxGeometry x="-0.2131" y="-1" relative="1" as="geometry">
            <mxPoint x="16" y="-3" as="offset" />
          </mxGeometry>
        </mxCell>
        <mxCell id="U35MboQYNCDHYeBfsKGN-32" style="edgeStyle=orthogonalEdgeStyle;rounded=0;orthogonalLoop=1;jettySize=auto;html=1;entryX=0;entryY=0.5;entryDx=0;entryDy=0;fontColor=#FFFFFF;startArrow=classic;startFill=1;strokeColor=#801E1E;fontFamily=Jost;fontSource=https%3A%2F%2Ffonts.googleapis.com%2Fcss%3Ffamily%3DJost;" edge="1" parent="U35MboQYNCDHYeBfsKGN-62" source="U35MboQYNCDHYeBfsKGN-30" target="U35MboQYNCDHYeBfsKGN-19">
          <mxGeometry relative="1" as="geometry" />
        </mxCell>
        <mxCell id="U35MboQYNCDHYeBfsKGN-33" style="edgeStyle=orthogonalEdgeStyle;rounded=0;orthogonalLoop=1;jettySize=auto;html=1;strokeColor=#801E1E;fontColor=#FFFFFF;startArrow=classic;startFill=1;fontFamily=Jost;fontSource=https%3A%2F%2Ffonts.googleapis.com%2Fcss%3Ffamily%3DJost;entryX=0;entryY=0.5;entryDx=0;entryDy=0;" edge="1" parent="U35MboQYNCDHYeBfsKGN-62" source="U35MboQYNCDHYeBfsKGN-31" target="U35MboQYNCDHYeBfsKGN-21">
          <mxGeometry relative="1" as="geometry">
            <Array as="points">
              <mxPoint x="240" y="195" />
              <mxPoint x="240" y="335" />
            </Array>
          </mxGeometry>
        </mxCell>
        <mxCell id="U35MboQYNCDHYeBfsKGN-61" style="edgeStyle=orthogonalEdgeStyle;rounded=0;orthogonalLoop=1;jettySize=auto;html=1;strokeColor=#801E1E;fontFamily=Jost;fontSource=https%3A%2F%2Ffonts.googleapis.com%2Fcss%3Ffamily%3DJost;fontColor=#801E1E;startArrow=none;startFill=0;" edge="1" parent="U35MboQYNCDHYeBfsKGN-62" source="U35MboQYNCDHYeBfsKGN-60" target="U35MboQYNCDHYeBfsKGN-58">
          <mxGeometry relative="1" as="geometry" />
        </mxCell>
        <mxCell id="U35MboQYNCDHYeBfsKGN-60" value="" style="shape=waypoint;sketch=0;fillStyle=solid;size=6;pointerEvents=1;points=[];fillColor=none;resizable=0;rotatable=0;perimeter=centerPerimeter;snapToPoint=1;labelBackgroundColor=#000000;comic=0;strokeColor=#FFFFFF;fontFamily=Jost;fontSource=https%3A%2F%2Ffonts.googleapis.com%2Fcss%3Ffamily%3DJost;fontColor=#801E1E;" vertex="1" parent="U35MboQYNCDHYeBfsKGN-62">
          <mxGeometry x="280" y="235" width="20" height="20" as="geometry" />
        </mxCell>
      </root>
    </mxGraphModel>
  </diagram>
</mxfile>
